<svg xmlns="http://www.w3.org/2000/svg" xmlns:xlink="http://www.w3.org/1999/xlink" preserveAspectRatio="xMidYMid meet" version="1.0" viewBox="2.2 6.1 248.8 250.7" zoomAndPan="magnify" style="fill: rgb(255, 255, 255);" original_string_length="22615"><g id="__id138_s6ok13h90s"><path d="M98.902,9.537c-0.032-0.314-0.085-0.649-0.175-1.02C98.236,9.067,98.407,9.357,98.902,9.537z" style="fill: inherit;"/><path d="M141.868,8.399c1.049,0.008,2.098,0.016,2.098,0.016c0.198,0.042,0.326,0.061,0.405,0.067 c0.03-0.003,0.061-0.008,0.091-0.011c0.006-0.138-4.029-1.31-4.146-0.077c0.038-0.001,0.071-0.002,0.112-0.004 C140.819,8.393,141.344,8.396,141.868,8.399z" style="fill: inherit;"/><path d="M121.715,9.235c-0.479-0.199-1.008-0.355-1.563-0.453C120.593,8.93,121.128,9.083,121.715,9.235z" style="fill: inherit;"/><path d="M133.352,10.533c-0.817-0.231-1.656-0.41-2.524-0.539c-0.74-0.104-1.498-0.165-2.271-0.174 c-0.771,0.025-1.557,0.104-2.356,0.241c0,0,0.014,0.023,0.034,0.057c1.103,0.157,2.253,0.284,3.418,0.355 C130.889,10.586,132.133,10.591,133.352,10.533z" style="fill: inherit;"/><path d="M116.499,9.468c0.936-0.208,1.559-0.346,1.559-0.346s-0.551-0.759-1.103-1.518c-0.562-0.753-1.123-1.506-1.123-1.506 c-4.659,0.071-4.087,1.342-3.599,2.653c0.239,0.652,0.448,1.318,0.004,1.855c0.286-0.077,0.575-0.154,0.866-0.23 C114.338,10.045,115.573,9.715,116.499,9.468z" style="fill: inherit;"/><path d="M112.228,10.619c0.003-0.004,0.005-0.009,0.009-0.013c-0.929,0.251-1.812,0.506-2.505,0.745 c-0.911,0.293-1.518,0.488-1.518,0.488c1.222-0.126,2.106-0.302,2.745-0.519C111.601,11.119,112,10.893,112.228,10.619z" style="fill: inherit;"/><path d="M190.484,243.271c-0.274,0.387-0.675,0.824-1.13,1.276c0.477-0.145,0.941-0.325,1.38-0.587L190.484,243.271z" style="fill: inherit;"/><path d="M189.843,241.541l0.641,1.731C191.043,242.424,191.069,241.776,189.843,241.541z" style="fill: inherit;"/><path d="M174.032,249.427c-1.267,1.3-2.611,2.484-2.611,2.484c1.162-0.227,3.104-0.809,4.421-1.67 c1.323-0.856,1.999-1.975,0.698-3.357C176.541,246.884,175.287,248.156,174.032,249.427z" style="fill: inherit;"/><path d="M212.963,205.871l-1.146-0.785C211.891,205.583,212.163,205.931,212.963,205.871z" style="fill: inherit;"/><path d="M18.249,83.6c-0.095-0.261-0.239-0.526-0.455-0.801C17.793,82.798,17.97,83.113,18.249,83.6z" style="fill: inherit;"/><path d="M127.679,252.538l-0.14-0.196C127.527,252.423,127.578,252.487,127.679,252.538z" style="fill: inherit;"/><path d="M193.536,32.32c0.325-0.325,0.547-0.547,0.547-0.547C193.811,31.912,193.644,32.103,193.536,32.32z" style="fill: inherit;"/><path d="M244.402,161.67c-0.076,0.007-0.142,0.007-0.215,0.013c-0.005,0.109-0.008,0.217-0.013,0.328 C244.25,161.897,244.32,161.787,244.402,161.67z" style="fill: inherit;"/><path d="M242.885,172.215c0.51-3.082,1.058-6.815,1.283-10.03c0.003-0.06,0.004-0.115,0.007-0.174 c-1.091,1.635-1.576,2.998-1.617,4.511C242.517,168.138,242.778,169.892,242.885,172.215z" style="fill: inherit;"/><path d="M233.623,197.392c0.245,0.2,0.52,0.399,0.845,0.598C234.426,197.254,234.1,197.169,233.623,197.392z" style="fill: inherit;"/><path d="M226.655,196.276c0,0,0.855-1.203,1.666-2.44c0.783-1.256,1.566-2.512,1.566-2.512c1.027,1.433,0.394,3.156-0.372,4.68 c-0.75,1.536-1.479,2.95-0.445,4.039c1.255,0.38,3.377-2.099,4.553-2.65c-2.059-1.675-1.453-3.353-1.055-4.716 c0.441-1.522,0.57-2.594-3.622-2.765c-0.187,0.36-0.371,0.73-0.549,1.128C227.782,192.431,227.235,194.093,226.655,196.276z" style="fill: inherit;"/><path d="M233.229,178.249c-0.213,2.238-0.613,3.966-1.102,5.413c-0.384,0.992-0.805,1.848-1.236,2.664 c0.466-0.259,0.958-0.33,1.464-0.402c1.306-0.194,2.797-0.407,3.843-4.382c0,0-0.739-0.832-1.479-1.664 C233.974,179.063,233.229,178.249,233.229,178.249z" style="fill: inherit;"/><path d="M228.833,189.906c0.04,0.001,0.073,0.004,0.113,0.006c0.464-0.895,0.94-1.699,1.372-2.524 c0.191-0.35,0.383-0.704,0.572-1.063c-0.144,0.08-0.285,0.175-0.424,0.297C229.862,187.134,229.394,188.107,228.833,189.906z" style="fill: inherit;"/><path d="M212.454,218.161c0.527-0.563,1.027-1.174,1.495-1.837c0,0-0.026-0.006-0.063-0.016c-0.891,0.669-1.794,1.393-2.668,2.167 c-0.955,0.793-1.839,1.67-2.659,2.573c0.741-0.415,1.461-0.882,2.166-1.404C211.321,219.194,211.9,218.701,212.454,218.161z" style="fill: inherit;"/><path d="M217.706,213.737c0.479-0.198,0.963-0.462,1.425-0.785C218.714,213.159,218.229,213.429,217.706,213.737z" style="fill: inherit;"/><path d="M215.409,214.084c-1.006-0.211-1.463-0.996-0.911-2.639c0,0,1.135-0.029,2.27-0.059c1.147-0.048,2.294-0.095,2.294-0.095 s-0.012-0.564-0.029-1.41c-0.008-0.834-0.069-1.965-0.156-3.092c-0.157-2.248-0.366-4.419-0.366-4.419 c0.046,1.591-0.518,2.908-1.292,4.028c-0.76,1.131-1.848,1.988-2.705,2.823c-1.719,1.671-2.894,3.003-0.576,5.464 c0,0-0.894,0.188-1.788,0.377c-0.886,0.177-1.771,0.354-1.771,0.354s0.89,0.231,1.779,0.462c0.762,0.189,1.517,0.376,1.729,0.429 c1.368-1.027,2.693-1.907,3.82-2.571C216.868,214.083,216.05,214.221,215.409,214.084z" style="fill: inherit;"/><path d="M204.046,228.578c-0.747,0.736-1.494,1.472-1.494,1.472c-0.169,0.111-0.272,0.187-0.333,0.238 c-0.02,0.023-0.038,0.049-0.058,0.072c0.095,0.101,3.775-1.923,2.986-2.877c-0.025,0.028-0.048,0.052-0.076,0.082 C204.792,227.841,204.418,228.209,204.046,228.578z" style="fill: inherit;"/><path d="M225.41,202.349c-0.775,0.953-1.276,1.703-1.574,2.308c-0.312,0.597-0.433,1.038-0.401,1.393 c0,0.005,0.004,0.009,0.004,0.014c0.479-0.834,0.923-1.638,1.243-2.296C225.118,202.917,225.41,202.349,225.41,202.349z" style="fill: inherit;"/><path d="M224.753,207.375c-0.631-0.292-1.248-0.616-1.314-1.311c-0.147,0.257-0.298,0.517-0.45,0.777 c-0.64,1.107-1.279,2.213-1.759,3.043c-0.516,0.808-0.858,1.347-0.858,1.347s0.927,0.147,1.854,0.294 c0.93,0.135,1.858,0.271,1.858,0.271C227.327,208.451,226.024,207.957,224.753,207.375z" style="fill: inherit;"/><path d="M3.589,96.875c-0.08-0.467-0.106-1.06-0.103-1.701c-0.235,0.44-0.436,0.896-0.561,1.392L3.589,96.875z" style="fill: inherit;"/><path d="M5.266,97.646l-1.677-0.771C3.793,97.87,4.233,98.347,5.266,97.646z" style="fill: inherit;"/><path d="M8.875,90.072c1.607-1.232,2.239-2.313-0.224-4.243c0,0-0.75,1.317-1.5,2.635c-0.373,0.663-0.747,1.325-1.026,1.822 c-0.281,0.495-0.459,0.832-0.459,0.831c-2.301-1.184-3.445-1.784-1.46-5.1c-1.347,0.365-1.552,4.111-1.826,6.095l0.819-1.187 c0.354,1.08,0.271,2.789,0.287,4.249C4.746,92.751,7.235,91.28,8.875,90.072z" style="fill: inherit;"/><path d="M10.894,84.461c0,0-0.013-1.786-0.024-3.572c-0.023-1.814,0.09-3.603,0.09-3.603c-0.661,0.981-1.623,2.766-1.945,4.307 C8.684,83.135,8.996,84.403,10.894,84.461z" style="fill: inherit;"/><path d="M17.748,79.247c0.657-1.002,1.349-1.897,1.327-3.064c-1.647,1.042-1.607,0.387-1.128-0.752 c0.488-1.13,1.402-2.736,1.398-3.615C13.61,76.275,19.168,75.47,17.748,79.247z" style="fill: inherit;"/><path d="M17.748,79.247c-0.299,0.466-0.585,0.965-0.748,1.53C17.373,80.185,17.582,79.7,17.748,79.247z" style="fill: inherit;"/><path d="M41.447,45.914l0.237,0.04C41.636,45.887,41.554,45.877,41.447,45.914z" style="fill: inherit;"/><path d="M250.154,124.826c-0.529-1.43-1.13-3.118-1.536-4.742c-0.4-1.627-0.479-3.22,0.232-4.543l-2.526,0.476 c-0.014-0.175-0.032-0.35-0.047-0.525c-0.216-3.016-0.356-4.925-0.339-6.217c-0.023-1.358,0.057-2.026,0.181-2.633 c0.118-0.605,0.257-1.143,0.28-2.241c0.012-0.549-0.007-1.239-0.073-2.15c-0.1-0.9-0.256-2.019-0.497-3.439 c0,0-0.954-0.553-1.909-1.105c-0.268-0.151-0.528-0.299-0.774-0.438c-0.163-0.618-0.326-1.236-0.5-1.85 c0.016-0.016,0.028-0.031,0.045-0.047c-0.106-0.307-0.222-0.616-0.332-0.923c-1.683-5.733-3.832-11.266-6.41-16.552 c-0.407-1.34-1.016-2.7-1.984-3.977c0,0,0.021,0.083,0.051,0.204c-1.293-2.401-2.672-4.75-4.139-7.036 c0.155-0.13,0.304-0.287,0.437-0.505c-0.957-1.414-2.08-2.647-3.303-3.733c-8.831-12.408-20.262-22.836-33.494-30.496 c0.005-0.012,0.015-0.022,0.02-0.033c-0.009,0.009-0.019,0.019-0.028,0.028c-1.055-0.611-2.124-1.201-3.202-1.776 c0.395-0.441,0.833-0.893,1.274-1.349c2.268-2.337,4.61-4.844,0.021-6.793c1.758,2.148,0.928,4.038-0.623,5.145 c-1.569,1.12-3.79,1.403-5.23,0.365c0.023,0.092,0.026,0.213,0.019,0.348c-0.631-0.299-1.265-0.595-1.903-0.882 c1.519-0.513,1.796-1.478,1.245-2.464c-0.587-1.059-2.101-2.152-3.882-2.502c0.728,0.341,1.325,0.745,1.78,1.195 c0.447,0.467,0.761,0.961,0.943,1.442c0.327,0.865,0.208,1.675-0.277,2.246c-0.959-0.429-1.926-0.841-2.9-1.242 c-0.208-0.152-0.415-0.3-0.624-0.453c0.308-0.125,0.65-0.352,1.042-0.725c1.066-1.782-0.745-3.764-3.335-5.664 c-1.303-0.917-2.777-1.856-4.148-2.767c-1.387-0.859-2.66-1.727-3.522-2.62c-1.854-0.248-2.87,0.075-3.591,0.59 c-0.727,0.537-1.188,1.36-1.977,2.379c-0.189-1.212-1.14-2.245-2.137-3.184c-0.996-0.943-2.018-1.889-2.291-3.109 c-2.052,0.425-3.762,0.441-5.329,0.185c-1.564-0.264-2.981-0.815-4.424-1.243c-1.438-0.449-2.89-0.918-4.475-1.037 c-0.485-0.023-0.988-0.004-1.5,0.038c0,0.012-0.03,0.016-0.091,0.011c-1.134,0.103-2.331,0.372-3.621,0.932 c-0.336-0.45-0.458-0.779-0.435-1.02c-0.326,0.011-0.543,0.018-0.543,0.018l0.443,0.501c-1.419,0.833-3.108,1.29-4.919,1.476 c-0.634,0.067-1.286,0.111-1.944,0.143c0.577,0.163,1.145,0.348,1.696,0.575c0.382,0.164,0.744,0.349,1.114,0.525 c-1.037,0.093-2.341,0.264-3.647,0.416c-1.855,0.196-3.688,0.481-4.738,0.656c-0.172-0.294-0.397-0.677-0.624-1.062 c-0.404-0.671-0.806-1.338-0.919-1.526c-1.694-0.241-3.253-0.556-4.52-0.883c0.836,0.348,1.513,0.829,1.869,1.378 c0.261,0.399,0.341,0.802,0.208,1.196c-0.284,0.015-0.568,0.035-0.852,0.048c-0.604,0.046-1.207,0.063-1.81,0.095 c-0.135-0.129-0.273-0.26-0.413-0.392c-0.845-0.777-1.689-1.555-1.689-1.555s-0.39,0.407-0.976,1.018 c-0.304,0.31-0.655,0.688-1.024,1.098c-2.066,0.076-4.11,0.21-6.106,0.287c-2.585,0.186-5.082,0.448-7.393,0.848 c-1.92,0.397-3.705,0.87-5.303,1.506c0.694-0.623,1.651-1.024,2.601-1.338c1.616-0.556,3.131-1.041,3.17-2.541 c-0.618-1.156-3.873-0.903-5.093-1.346c0.271,2.641-1.343,3.398-2.589,4.081c-1.259,0.692-2.07,1.309-0.09,3.718 c-0.133,0.413-0.119,0.753,0.184,0.955c-0.772,0.231-1.515,0.43-2.243,0.658c-0.383,0.112-0.768,0.227-1.155,0.347 c0.158,0.045,0.325,0.079,0.509,0.09c0.731,0.06,1.666-0.247,3.123-0.986c0.496,0.158,1.407,0.116,2.991-0.247 c-1.871,1.847-4.302,2.479-6.958,2.516c-1.008,0.064-2.049,0.037-3.089-0.008c0.224-0.121,0.45-0.248,0.666-0.354 c0.972-0.43,1.876-0.737,2.758-1.01c-0.513-0.146-0.912-0.444-1.32-0.75c-1.06-0.786-2.266-1.69-5.816,0.381 c0,0-0.042,0.725-0.093,1.586c-0.336-0.005-0.681-0.021-1.003-0.012c0,0,0.17-0.288,0.427-0.72 c0.256-0.438,0.607-1.002,0.966-1.557c0.73-1.121,1.461-2.241,1.461-2.241c-6.439,2.208-13.828,3.702-20.83,6.229 c-6.979,2.483-13.548,5.917-17.723,10.839l3.345,0.979c-0.556,0.47-1.119,0.923-1.689,1.36c-0.561,0.451-1.116,0.904-1.682,1.334 c-1.129,0.865-2.278,1.676-3.429,2.448c-2.24,1.622-4.513,3.072-6.578,4.535c-2.029,1.502-3.991,2.864-5.518,4.344 c-1.537,1.469-2.77,2.917-3.502,4.401c4.491-1.363,3.884,0.163,2.151,2.272c-0.411,0.547-0.896,1.133-1.396,1.727 c-0.169,0.077-0.343,0.142-0.523,0.196l0.226,0.154c-1.435,1.689-2.907,3.384-3.086,4.338c0.816-0.652,1.642-1.377,2.465-2.149 c0.519-0.498,1.024-1.029,1.523-1.573l1.002,0.685c-2.188,2.525-3.521,4.081-4.501,5.035c-0.943,0.977-1.473,1.393-1.99,1.734 c-0.512,0.345-0.99,0.626-1.783,1.386c-0.396,0.38-0.872,0.881-1.469,1.572c-0.566,0.707-1.247,1.609-2.081,2.783 c0,0,0.284,1.066,0.568,2.132c0.146,0.526,0.292,1.053,0.401,1.447c0.122,0.396,0.203,0.66,0.203,0.66 c0.233,0.367,0.502-2.204,1.179-4.693c0.631-2.508,1.879-4.792,3.524-3.839c-0.126,0.927-0.311,1.863-0.537,2.808 c-0.209,0.953-0.429,1.931-0.691,2.91c-0.258,0.98-0.542,1.969-0.834,2.964c-0.285,0.999-0.525,2.027-0.787,3.046 c-0.255,1.022-0.503,2.048-0.727,3.072c-0.208,1.03-0.35,2.074-0.476,3.103c-0.12,1.031-0.2,2.054-0.225,3.063 c-0.014,1.012,0.077,2.026,0.212,3.008c0,0-1.221-1.813-2.369-3.692c-0.676-1.122-1.336-2.265-1.758-3.002 c0.532,1.459-0.689,2.746-2.208,4.486c-0.912,1.018-1.964,2.18-2.875,3.571c-0.85,1.404-1.552,3.042-1.813,4.948 c0,0,0.893-1.479,1.785-2.958c0.452-0.731,0.881-1.462,1.24-1.998c0.359-0.535,0.599-0.891,0.599-0.891 c1.012,1.684,1.374,3.621,1.244,5.712c-0.158,2.086-0.592,4.376-1.129,6.759c-0.137,0.596-0.274,1.198-0.413,1.802 c-0.112,0.609-0.224,1.222-0.336,1.835c-0.213,1.229-0.402,2.465-0.525,3.687c-0.218,2.445-0.04,4.847,0.663,6.977 c0.196-2.274,0.408-4.546,2.24-4.75c0.16,0.202,0.282,0.441,0.384,0.698c-0.007,0.853,0.048,1.015,0.243,0.907 c0.143,0.911,0.079,1.994-0.117,3.13c-0.299,1.924-0.861,4-1.446,5.549c-0.239-0.045-0.461-0.12-0.675-0.208 c-0.244-1.526-0.136-3.026,0.912-5.097c0,0-0.914,0.149-1.828,0.299c-0.915,0.161-1.83,0.322-1.83,0.322 c0.023,0.351,0.057,0.696,0.092,1.041c-0.001-0.004-0.003-0.007-0.004-0.011c-0.701-1.93-0.803-4.369-0.969-6.713 c-0.209-4.678-0.003-8.986-2.734-8.322c-0.478,2.476-0.456,4.937-0.056,7.284c0.446,2.352,1.123,4.584,1.865,6.651 c0.782,2.07,1.546,3.979,2.007,5.731c0.501,1.754,0.75,3.356,0.374,4.849c0,0-0.979-1.182-1.958-2.364 c-0.488-0.606-0.976-1.211-1.342-1.666c-0.372-0.458-0.594-0.768-0.594-0.768s0.062,0.3,0.192,0.749 c0.124,0.447,0.29,1.043,0.456,1.639c0.335,1.183,0.67,2.365,0.67,2.365l0.241-1.403c1.569,0.975,1.485,2.465,1.243,4.212 c-0.222,1.74-0.678,3.751-0.04,5.586c0,0-1.004-0.542-2.009-1.083c-1.005-0.561-2.009-1.121-2.009-1.121s0.028,0.449,0.071,1.123 c0.054,0.673,0.078,1.574,0.189,2.47c0.2,1.793,0.4,3.585,0.4,3.585l0.919-1.038c3.107,11.229,4.954,20.746,6.452,31.459 c0,0-0.046-0.397-0.116-0.994c-0.062-0.599-0.177-1.381-0.222-2.185c-0.11-1.591-0.221-3.182-0.221-3.182 c0.903,0.249,2.11,3.329,2.685,6.146c0.95-0.829,0.494-2.903,0.273-4.857c-0.216-1.615-0.392-3.08,0.164-3.562 c0.498,2.82,1.11,5.624,1.836,8.404c0.039,0.656,0.064,1.3,0.078,1.948c0.031,1.49,0.127,2.967,0.305,4.725 c0.096,0.875,0.22,1.818,0.408,2.85c0.218,1.017,0.495,2.126,0.853,3.354c0.665,0.077,1.167-1.021,1.784-2.117 c0.699,1.845,1.456,3.671,2.261,5.482c-0.611,0.428-1.562,0.395-3.221-0.559c2.789,2.512,2.883,3.976,3.065,5.244 c0.181,1.247,0.515,2.259,3.667,3.572c-0.54-0.46-0.937-1.44-1.323-2.417c0.085-0.279,0.193-0.468,0.313-0.609 c1.318,2.575,2.744,5.108,4.286,7.59c0.037,2.113,0.454,4.231,2.206,6.986c0,0,0.543,0.468,1.359,1.171 c0.818,0.697,1.964,1.572,3.082,2.458c0.854,0.69,1.722,1.352,2.471,1.908c0.58,0.686,1.17,1.367,1.771,2.042 c-0.29,0.234-0.674,0.3-0.674,0.3c1.053,0.849,2.065,1.746,3.066,2.658c1.029,0.883,2.033,1.793,3.018,2.716 c0.162,0.157,0.329,0.302,0.492,0.457c0.236,0.227,0.473,0.453,0.711,0.678c0.073,0.507,0.389,1.002,1.114,1.402 c0.293,0.15,0.555,0.266,0.79,0.352c0.027,0.024,0.056,0.048,0.083,0.073c0.905,0.817,1.808,1.624,2.681,2.432 c1.959,1.697,3.911,3.277,5.827,4.627c0.697,0.458,1.384,0.879,2.067,1.279c2.766,1.91,5.601,3.677,8.497,5.295 c0,0.023,0.002,0.042,0.001,0.065c0.241,0.117,0.495,0.222,0.738,0.337c1.229,0.673,2.466,1.324,3.715,1.946 c-1.007,0.212-1.85,0.39-1.85,0.39c6.114,2.993,12.395,7.16,19.133,10.324c6.69,3.179,13.764,5.396,20.197,4.867l-1.673-3.058 c0.726,0.061,1.444,0.139,2.156,0.232c0.715,0.077,1.428,0.149,2.133,0.246c1.41,0.187,2.796,0.426,4.156,0.693 c2.73,0.438,5.363,1.02,7.858,1.445c2.497,0.372,4.848,0.797,6.973,0.83c2.125,0.048,4.021-0.104,5.588-0.636 c-4.14-2.212-2.631-2.861,0.086-3.128c2.732-0.389,6.777-0.378,7.916-1.156c-1.038-0.116-2.134-0.188-3.262-0.224 c-1.128-0.023-2.288,0.018-3.452,0.102c-2.326,0.185-4.669,0.343-6.773,0.617c-3.641,0.363-6.56,0.661-7.214,0.336l0.253,0.355 c0,0-0.952,0.1-2.385,0.153c-1.433,0.065-3.355,0.166-5.289,0.222c-1.938-0.011-3.875-0.021-5.328-0.03 c-0.732-0.002-1.341-0.018-1.765-0.049c-0.425-0.022-0.668-0.036-0.668-0.036l0.488-1.868c12.577,1.192,25.324,0.149,37.601-3.125 c0.004,0.012,0.005,0.025,0.009,0.037c0-0.012,0-0.026,0-0.04c1.178-0.314,2.351-0.652,3.52-1.008 c0.033,0.591,0.042,1.221,0.053,1.855c0.049,3.256,0.165,6.686,4.789,4.819c-2.762-0.276-3.512-2.2-3.198-4.079 c0.318-1.901,1.688-3.672,3.44-3.957c-0.082-0.049-0.169-0.133-0.26-0.233c0.658-0.235,1.315-0.473,1.97-0.722 c-0.712,1.437-0.226,2.315,0.862,2.623c0.905,0.259,2.221,0.131,3.471-0.412c1.461,0.399,0.988,0.805-0.075,1.238 c-1.144,0.454-2.926,0.943-3.545,1.567c6.216,0.778,3.729-1.614,5.284-3.355c1.109,0.186,2.508,0.1,4.027-0.134 c1.57-0.273,3.276-0.651,4.89-0.978c1.323-0.311,2.584-0.55,3.689-0.612c-0.425,0.462-0.594,1.297-0.42,2.732 c0,0,1.462-0.402,2.925-0.804c0.732-0.204,1.464-0.408,2.013-0.562c0.55-0.152,0.913-0.264,0.913-0.263 c0.79,2.464,1.174,3.697-2.574,4.639c1.21,0.694,4.004-1.809,5.6-3.019l-1.417,0.26c0.513-1.014,1.78-2.164,2.801-3.207 c-2.604,0.822-5.405,0.103-7.418-0.203c-0.445-0.059-0.849-0.086-1.208-0.063c1.051-0.934,1.435-1.74,1.561-2.493 c0.134-0.894-0.122-1.802-0.285-3.08c0.991,0.723,2.394,0.781,3.763,0.74c1.371-0.037,2.763-0.091,3.818,0.58 c1.151-1.752,2.348-2.972,3.638-3.9c1.292-0.919,2.684-1.531,4.007-2.25c1.335-0.699,2.693-1.395,3.897-2.431 c0.359-0.327,0.702-0.695,1.034-1.087c-0.008-0.008,0.01-0.032,0.058-0.072c0.728-0.875,1.384-1.911,1.9-3.219 c0.556,0.081,0.874,0.228,1.028,0.414c0.223-0.238,0.371-0.396,0.371-0.396l-0.668-0.041c0.414-1.592,1.285-3.109,2.436-4.523 c0.4-0.496,0.83-0.988,1.272-1.475c-0.523,0.293-1.055,0.563-1.605,0.792c-2.696,1.078-5.399,1.702-8.072,1.999 c-1.622,0.208-3.147,0.371-4.576,0.555c1.268-1.145,2.512-2.329,3.736-3.545c0.735,0.515,1.447,1.013,1.447,1.013 c1.154-1.318,2.138-2.685,3.026-4.088c0.851-1.365,1.563-2.838,2.284-4.301c2.352-2.817,4.535-5.727,6.55-8.717l0.469,0.331 c-0.05-0.351,0.638-1.255,1.754-2.674c0.565-0.701,1.256-1.512,2.047-2.414c0.76-0.928,1.607-1.963,2.524-3.083 c0.028-0.034,0.058-0.073,0.085-0.107c7.857-8.455,14.357-18.187,19.147-28.856c0.034-0.023,0.067-0.046,0.103-0.069 c0.55-0.383,1.088-0.79,1.438-0.704c0.342,0.084,0.509,0.669,0.132,2.23c0.048,0.901,0.563-1.41,0.619-4.075 c0.051-0.94,0.039-1.917-0.039-2.806c0.311-0.81,0.611-1.625,0.903-2.444c0.528,1.122,1.608,1.75,3.658,1.599 c0.122-2.997-0.014-5.462-0.823-6.398l0.726,0.545c0,0-0.427-1.42-1.184-3.323c0.468-1.713,0.894-3.444,1.276-5.191 c0.89,1.579,1.945,2.529,3.487,1.722c0,0-0.657-1.386-1.315-2.772c-0.319-0.685-0.68-1.364-0.952-1.87 c-0.27-0.505-0.45-0.841-0.45-0.841c3.115,1.888,2.267-5.317,4.605-3.972c0,0-0.035-0.236-0.125-0.648 c-0.087-0.411-0.21-0.998-0.358-1.702c-0.32-1.405-0.646-3.278-1.157-5.121c-0.468-1.757-0.907-3.492-1.299-4.83 c0.023-0.894,0.035-1.79,0.036-2.689l2.193-0.596c0,0-0.244,0.951-0.488,1.901c-0.124,0.471-0.248,0.941-0.341,1.294 c-0.104,0.353-0.173,0.587-0.173,0.587c1.842,0.858,2.668,0.863,2.919,0.261C251.031,127.44,250.677,126.256,250.154,124.826z M33.881,80.093c0.342-1.01,0.679-1.985,0.92-2.97c0.057-0.22,0.103-0.437,0.155-0.656c0.856-0.573,1.644-0.313,2.297,1.681 c0,0-1.25,1.147-2.499,2.296c-0.656,0.663-1.305,1.318-1.764,1.782C33.332,81.514,33.638,80.803,33.881,80.093z M35.612,73.529 c0.163-0.695,0.326-1.39,0.498-2.055c0.134-0.515,0.279-1.014,0.436-1.502C36.802,71.631,36.385,72.715,35.612,73.529z M41.456,74.992c0.481-0.051,1.037,0.038,1.694,0.31c-0.611,0.695-1.211,1.396-1.8,2.102c0.005-0.433,0.015-0.874,0.042-1.316 C41.414,75.72,41.435,75.353,41.456,74.992z M26.662,99.016c0.172-1.274,0.151-2.703,0.074-4.183 c-0.046-1.874-0.214-3.833-0.286-5.596c-0.003-0.22,0.003-0.426,0.004-0.639c0.258-0.579,0.54-1.081,0.837-1.443 c-0.281,0.088-0.547,0.212-0.806,0.352c0.052-1.016,0.169-1.913,0.403-2.579c0.19,0.581,1.026-0.599,2.047-1.904 c1.008,0.356,2.043-1.096,3.085-2.77c0.434,0.072,0.668,0.744,0.564,2.381c-0.141,0.142-0.224,0.226-0.224,0.226 c0.073-0.001,0.138-0.009,0.208-0.012c-0.007,0.093-0.011,0.177-0.021,0.276c0.052-0.094,0.089-0.188,0.139-0.283 c1.751-0.1,2.879-0.723,3.747-1.563c0.93-0.885,1.51-2.059,2.053-3.172c0.483-0.991,0.968-1.911,1.619-2.494 c-0.025,0.072-0.048,0.136-0.074,0.209c-0.292,0.861-0.551,1.802-0.835,2.727c-0.251,0.842-0.5,1.678-0.738,2.476 c-0.442,0.579-0.881,1.16-1.309,1.747c-0.125,0.041-0.234,0.068-0.319,0.07c-0.006,0.126,0.012,0.229,0.036,0.325 c-3.76,5.193-6.991,10.649-9.696,16.295C26.984,99.331,26.819,99.178,26.662,99.016z M244.487,100.795 c1.24,2.074,1.959,4.389,0.551,5.083c-0.377-2.142-0.822-4.259-1.326-6.354C243.973,99.932,244.236,100.355,244.487,100.795z M180.073,25.795c-0.067-0.027-0.134-0.055-0.201-0.082c0.029-0.006,0.057-0.008,0.087-0.017 C179.998,25.73,180.035,25.762,180.073,25.795z M177.43,23.601c-0.129-0.097-0.257-0.19-0.386-0.288c0,0,0.16,0.126,0.413,0.327 c0.084,0.122,0.168,0.248,0.251,0.377c0.271,0.419,0.54,0.85,0.845,1.178c-1.249-0.481-2.506-0.942-3.777-1.377 C175.982,22.078,176.745,22.631,177.43,23.601z M127.396,12.769c-0.323,0.056-0.511,0.089-0.511,0.089 c-0.138-0.169-0.173-0.358-0.165-0.54C126.958,12.477,127.191,12.633,127.396,12.769z M125.051,11.229c0,0,0.288,0.188,0.686,0.447 c-0.24,0.02-0.479,0.045-0.719,0.062C125.033,11.576,125.045,11.409,125.051,11.229z M68.025,25.744 c-0.238,0.195-0.467,0.389-0.698,0.583c-0.055-0.056-0.094-0.107-0.155-0.165C67.463,25.993,67.746,25.86,68.025,25.744z M61.256,30.927c0.686-0.212,1.366-0.396,2.021-0.571c-0.608,0.79-0.996,1.496-1.038,2.067l-0.128-0.898 c0,0-0.745,1.38-1.585,3.353c-0.853,1.961-1.658,4.646-2.019,7.059c0.56-1.572,1.684-3.033,2.944-4.384 c1.312-1.297,2.755-2.488,3.918-3.629c1.846-1.684,3.05-3.283,2.1-5.085c0.723-0.527,0.904-1.186,0.247-2.067 c1.099-0.34,1.967-0.807,2.726-1.45c1.208,0.101,2.188,0.686,2.835,1.439c-0.421,0.349-0.87,0.744-1.316,1.172 c-1.978,1.774-3.831,4.117-3.39,5.077c0.902-0.177,1.739-1.71,2.818-2.765c1.056-1.08,2.237-1.811,3.543-0.519 c2.859-1.609,1.742-1.784,0.424-2.039c0.097-0.065,0.183-0.123,0.289-0.193c0.94-0.598,2.194-1.395,3.448-2.191 c1.256-0.818,2.553-1.556,3.534-2.104c0.98-0.555,1.635-0.925,1.635-0.925c1.714,1.095,0.511,5.505-0.819,5.644 c-1.078,0.313-2.231,0.95-3.439,1.66c-1.206,0.717-2.485,1.456-3.762,2.168c-2.553,1.441-5.235,2.392-8.027,1.636 c-1.163,1.838,0.083,2.387,0.729,3.042c0.665,0.675,0.703,1.354-2.543,3.596c-4.677,0.73-9.071,2.832-13.072,5.44 c0.146-1.499,1.019-3.485,1.771-5.424c1.148-2.809,2.1-5.48-0.323-6.238c0,0-0.515,1.445-1.03,2.89 c-0.101,0.277-0.195,0.556-0.284,0.829C52.252,34.099,56.885,32.136,61.256,30.927z M49.966,36.404 c0.519-0.516,0.961-0.936,1.282-1.213c0.316-0.285,0.498-0.447,0.498-0.447l1.683,2.874c-0.125,0.388-0.239,0.756-0.331,1.065 c-0.166,0.548-0.276,0.913-0.276,0.913c-0.826-3.37-4.937,1.623-5.933-0.148C48.02,38.328,49.111,37.248,49.966,36.404z M41.017,45.841c0,0,0.603-0.744,1.578-1.794c0.896-0.981,2.07-2.282,3.293-3.586c-0.14,0.214-0.286,0.438-0.451,0.69 c-0.767,1.22-1.861,2.775-2.802,4.439c-0.958,1.651-1.928,3.276-2.604,4.525c-0.656,1.26-1.094,2.1-1.094,2.1l-2.139-1.225 c0.358-0.439,0.705-0.862,1.038-1.265c0.031-0.018,0.062-0.036,0.093-0.055c0.42-0.245,0.841-0.49,1.156-0.674 c0.323-0.176,0.538-0.293,0.538-0.293c-0.103-0.281-0.202-0.524-0.299-0.75c0.989-1.145,1.738-1.91,2.125-2.04L41.017,45.841z M20.447,103.525c1.922-5.844,1.424,2.104,3.688-0.08c0.534-0.274,0.949-0.636,1.285-1.065c0.029,0.265,0.043,0.539,0.04,0.822 c-0.806,1.864-1.55,3.749-2.244,5.647c-0.714,0.316-1.347,0.058-1.835-0.626c-0.339-0.474-0.608-1.147-0.788-1.956 C20.425,105.462,20.39,104.527,20.447,103.525z M94.04,247.731c0.495,0.14,0.99,0.282,1.487,0.415c0,0.059-0.007,0.105-0.005,0.167 C94.958,248.164,94.469,247.965,94.04,247.731z M105.238,250.263c2.318,0.393,4.647,0.702,6.982,0.941 C110.591,252.305,107.91,251.546,105.238,250.263z M165.073,246.802c-0.307,0.054-0.607,0.091-0.89,0.093 c-0.647-0.014-1.218-0.142-1.687-0.354c-0.844-0.38-1.332-1.038-1.393-1.784c1.283-0.49,2.559-1.007,3.826-1.549 c-0.21,0.32-0.343,0.796-0.36,1.506c0.189,0.754,0.684,1.242,1.395,1.533C165.643,246.381,165.344,246.562,165.073,246.802z M167.659,242.877c-0.488-0.105-0.983-0.219-1.431-0.235c1.223-0.542,2.439-1.106,3.645-1.697 C170.303,243.313,169.041,243.181,167.659,242.877z" style="fill: inherit;"/><path d="M150.597,248.197c0,0.46,0,0.774,0,0.774C150.691,248.681,150.674,248.427,150.597,248.197z" style="fill: inherit;"/></g></svg>